<svg width="140" height="122" viewBox="0 0 140 122" fill="none" xmlns="http://www.w3.org/2000/svg">
<circle cx="61" cy="61" r="61" fill="#E9F3F2"/>
<g clip-path="url(#clip0_1_2516)">
<path d="M127.829 32.2258H38.9127C32.5269 32.2258 27.3547 37.382 27.3547 43.7482V85.9938C27.3547 92.3506 32.5269 97.5162 38.9127 97.5162H127.838C134.224 97.5162 139.396 92.3599 139.396 85.9938V43.7482C139.396 37.382 134.224 32.2258 127.838 32.2258H127.829Z" fill="#C1C3C8"/>
<path d="M38.9127 89.2701C37.1016 89.2701 35.6265 87.7995 35.6265 85.9939V43.7483C35.6265 41.9427 37.1016 40.4722 38.9127 40.4722H127.838C129.65 40.4722 131.125 41.9427 131.125 43.7483V85.9939C131.125 87.7995 129.65 89.2701 127.838 89.2701H38.9127Z" fill="white"/>
<path d="M127.829 40.4722H38.9127C37.1016 40.4722 35.6265 41.9427 35.6265 43.7483V52.2458H131.125V43.7483C131.125 41.9427 129.65 40.4722 127.838 40.4722H127.829Z" fill="url(#paint0_linear_1_2516)"/>
<path d="M35.6172 77.4963V85.9939C35.6172 87.7995 37.0923 89.27 38.9035 89.27H127.829C129.64 89.27 131.115 87.7995 131.115 85.9939V77.4963H35.6172Z" fill="url(#paint1_linear_1_2516)"/>
<path d="M54.6907 44.4463C55.7643 44.4463 56.6326 45.3119 56.6326 46.3822C56.6326 47.4525 55.7643 48.3181 54.6907 48.3181C53.617 48.3181 52.7488 47.4525 52.7488 46.3822C52.7488 45.3119 53.617 44.4463 54.6907 44.4463Z" fill="#464655"/>
<path d="M54.6907 81.4612C55.7643 81.4612 56.6326 82.3268 56.6326 83.3971C56.6326 84.4674 55.7643 85.333 54.6907 85.333C53.617 85.333 52.7488 84.4674 52.7488 83.3971C52.7488 82.3268 53.617 81.4612 54.6907 81.4612Z" fill="#464655"/>
<path d="M112.051 44.4463C113.125 44.4463 113.993 45.3119 113.993 46.3822C113.993 47.4525 113.125 48.3181 112.051 48.3181C110.977 48.3181 110.109 47.4525 110.109 46.3822C110.109 45.3119 110.977 44.4463 112.051 44.4463Z" fill="#464655"/>
<path d="M112.051 81.4612C113.125 81.4612 113.993 82.3268 113.993 83.3971C113.993 84.4674 113.125 85.333 112.051 85.333C110.977 85.333 110.109 84.4674 110.109 83.3971C110.109 82.3268 110.977 81.4612 112.051 81.4612Z" fill="#464655"/>
<path opacity="0.1" d="M46.0174 85.9938V43.7482C46.0174 37.382 51.1896 32.2258 57.5754 32.2258H38.9127C32.5269 32.2258 27.3547 37.382 27.3547 43.7482V85.9938C27.3547 92.3506 32.5269 97.5162 38.9127 97.5162H57.5754C51.1896 97.5162 46.0174 92.3599 46.0174 85.9938Z" fill="black"/>
<path d="M80.7728 58.2419C81.9275 56.2419 84.8142 56.2419 85.9689 58.2419L92.6596 69.8307C93.8143 71.8307 92.371 74.3307 90.0616 74.3307H76.6801C74.3707 74.3307 72.9273 71.8307 74.082 69.8307L80.7728 58.2419Z" fill="#E5E0E9"/>
<path d="M84.374 57.6222L84.176 68.9302H82.878L82.702 57.6222H84.374ZM83.604 73.1102C83.2813 73.1102 83.01 73.0002 82.79 72.7802C82.5847 72.5602 82.482 72.2889 82.482 71.9662C82.482 71.6436 82.5847 71.3796 82.79 71.1742C83.01 70.9542 83.2813 70.8442 83.604 70.8442C83.912 70.8442 84.1687 70.9542 84.374 71.1742C84.594 71.3796 84.704 71.6436 84.704 71.9662C84.704 72.2889 84.594 72.5602 84.374 72.7802C84.1687 73.0002 83.912 73.1102 83.604 73.1102Z" fill="white"/>
</g>
<defs>
<linearGradient id="paint0_linear_1_2516" x1="83.3755" y1="40.4722" x2="83.3755" y2="52.2458" gradientUnits="userSpaceOnUse">
<stop stop-color="#1BB5C2"/>
<stop offset="1" stop-color="#2EABD1"/>
</linearGradient>
<linearGradient id="paint1_linear_1_2516" x1="83.3663" y1="77.4963" x2="83.3663" y2="89.27" gradientUnits="userSpaceOnUse">
<stop stop-color="#1BB5C2"/>
<stop offset="1" stop-color="#2EABD1"/>
</linearGradient>
<clipPath id="clip0_1_2516">
<rect width="112.032" height="65.2903" fill="white" transform="translate(27.3547 32.2258)"/>
</clipPath>
</defs>
</svg>
